<svg width="46" height="44" viewBox="0 0 46 44" fill="none" xmlns="http://www.w3.org/2000/svg">
<path d="M34.3752 1V5.51997C34.3752 6.69036 33.4252 7.64038 32.2548 7.64038H14.0574C12.887 7.64038 11.937 6.69036 11.937 5.51997V1" stroke="white" stroke-linecap="round" stroke-linejoin="round"/>
<path d="M11.94 3.58521H1" stroke="white" stroke-linecap="round" stroke-linejoin="round"/>
<path d="M45.3162 3.58521H34.3762" stroke="white" stroke-linecap="round" stroke-linejoin="round"/>
<path d="M26.8326 7.64062V13.6738L23.155 16.7344L19.4822 13.6738V7.64062" stroke="white" stroke-linecap="round" stroke-linejoin="round"/>
<path d="M22.1824 10.353V12.5322L23.3626 13.4773" stroke="white" stroke-linecap="round" stroke-linejoin="round"/>
<path d="M23.1528 16.7339V22.5" stroke="white" stroke-linecap="round" stroke-linejoin="round"/>
<path d="M22.4395 22.6123C23.0221 22.3695 23.6826 22.5295 24.1016 22.998L40.1016 40.8926C40.5052 41.3442 40.6101 41.9961 40.3809 42.5547C40.1502 43.1167 39.6135 43.5 39 43.5H10C9.14772 43.5 8.5 42.7803 8.5 41.9473V26.1582C8.5 25.5679 8.82551 25.0148 9.35938 24.7539C9.89774 24.4911 10.5314 24.5837 10.9775 24.9805H10.9785L21.5 34.3516V24.0527C21.5 23.431 21.8618 22.8535 22.4395 22.6123ZM24.5 40.3945H35.5674L24.5 28.0156V40.3945ZM11.5 40.3945H21.5V38.4482L11.5 29.541V40.3945Z" fill="#1A8EF9" stroke="white" stroke-linecap="round" stroke-linejoin="round"/>
</svg>
