<svg fill="none" height="45" viewBox="0 0 46 45" width="46" xmlns="http://www.w3.org/2000/svg"><g fill="#fff"><path d="m3.23017 27.5902c.91429 0 1.65547-.6992 1.65547-1.5617s-.74118-1.5617-1.65547-1.5617c-.91428 0-1.65546.6992-1.65546 1.5617s.74118 1.5617 1.65546 1.5617z"/><path d="m3.23017 31.8275c.91429 0 1.65547-.6992 1.65547-1.5617s-.74118-1.5617-1.65547-1.5617c-.91428 0-1.65546.6992-1.65546 1.5617s.74118 1.5617 1.65546 1.5617z"/><path d="m3.23017 36.0687c.91429 0 1.65547-.6992 1.65547-1.5617s-.74118-1.5617-1.65547-1.5617c-.91428 0-1.65546.6992-1.65546 1.5617s.74118 1.5617 1.65546 1.5617z"/><path d="m3.23017 40.305c.91429 0 1.65547-.6992 1.65547-1.5617s-.74118-1.5617-1.65547-1.5617c-.91428 0-1.65546.6992-1.65546 1.5617s.74118 1.5617 1.65546 1.5617z"/><path d="m3.23017 44.5472c.91429 0 1.65547-.6992 1.65547-1.5617s-.74118-1.5617-1.65547-1.5617c-.91428 0-1.65546.6992-1.65546 1.5617s.74118 1.5617 1.65546 1.5617z"/><path d="m7.66304 27.5902c.91428 0 1.65546-.6992 1.65546-1.5617s-.74118-1.5617-1.65546-1.5617c-.91429 0-1.65547.6992-1.65547 1.5617s.74118 1.5617 1.65547 1.5617z"/><path d="m7.66304 31.8275c.91428 0 1.65546-.6992 1.65546-1.5617s-.74118-1.5617-1.65546-1.5617c-.91429 0-1.65547.6992-1.65547 1.5617s.74118 1.5617 1.65547 1.5617z"/><path d="m7.66304 36.0687c.91428 0 1.65546-.6992 1.65546-1.5617s-.74118-1.5617-1.65546-1.5617c-.91429 0-1.65547.6992-1.65547 1.5617s.74118 1.5617 1.65547 1.5617z"/><path d="m7.66304 40.305c.91428 0 1.65546-.6992 1.65546-1.5617s-.74118-1.5617-1.65546-1.5617c-.91429 0-1.65547.6992-1.65547 1.5617s.74118 1.5617 1.65547 1.5617z"/><path d="m7.66304 44.5472c.91428 0 1.65546-.6992 1.65546-1.5617s-.74118-1.5617-1.65546-1.5617c-.91429 0-1.65547.6992-1.65547 1.5617s.74118 1.5617 1.65547 1.5617z"/><path d="m12.0959 27.5902c.9143 0 1.6555-.6992 1.6555-1.5617s-.7412-1.5617-1.6555-1.5617-1.6555.6992-1.6555 1.5617.7412 1.5617 1.6555 1.5617z"/><path d="m12.0959 31.8275c.9143 0 1.6555-.6992 1.6555-1.5617s-.7412-1.5617-1.6555-1.5617-1.6555.6992-1.6555 1.5617.7412 1.5617 1.6555 1.5617z"/><path d="m12.0959 36.0687c.9143 0 1.6555-.6992 1.6555-1.5617s-.7412-1.5617-1.6555-1.5617-1.6555.6992-1.6555 1.5617.7412 1.5617 1.6555 1.5617z"/><path d="m12.0959 40.305c.9143 0 1.6555-.6992 1.6555-1.5617s-.7412-1.5617-1.6555-1.5617-1.6555.6992-1.6555 1.5617.7412 1.5617 1.6555 1.5617z"/><path d="m12.0959 44.5472c.9143 0 1.6555-.6992 1.6555-1.5617s-.7412-1.5617-1.6555-1.5617-1.6555.6992-1.6555 1.5617.7412 1.5617 1.6555 1.5617z"/><path d="m43.3737 27.5902c.9143 0 1.6555-.6992 1.6555-1.5617s-.7412-1.5617-1.6555-1.5617-1.6554.6992-1.6554 1.5617.7411 1.5617 1.6554 1.5617z"/><path d="m16.6486 27.5902c.9143 0 1.6555-.6992 1.6555-1.5617s-.7412-1.5617-1.6555-1.5617-1.6554.6992-1.6554 1.5617.7411 1.5617 1.6554 1.5617z"/><path d="m21.0839 27.5902c.9143 0 1.6555-.6992 1.6555-1.5617s-.7412-1.5617-1.6555-1.5617-1.6554.6992-1.6554 1.5617.7411 1.5617 1.6554 1.5617z"/><path d="m25.5144 27.5902c.9142 0 1.6554-.6992 1.6554-1.5617s-.7412-1.5617-1.6554-1.5617c-.9143 0-1.6555.6992-1.6555 1.5617s.7412 1.5617 1.6555 1.5617z"/><path d="m43.3737 31.8265c.9143 0 1.6555-.6992 1.6555-1.5617s-.7412-1.5617-1.6555-1.5617-1.6554.6992-1.6554 1.5617.7411 1.5617 1.6554 1.5617z"/><path d="m43.3737 36.0687c.9143 0 1.6555-.6992 1.6555-1.5617s-.7412-1.5617-1.6555-1.5617-1.6554.6992-1.6554 1.5617.7411 1.5617 1.6554 1.5617z"/><path d="m43.3737 40.305c.9143 0 1.6555-.6992 1.6555-1.5617s-.7412-1.5617-1.6555-1.5617-1.6554.6992-1.6554 1.5617.7411 1.5617 1.6554 1.5617z"/><path d="m43.3737 44.5472c.9143 0 1.6555-.6992 1.6555-1.5617s-.7412-1.5617-1.6555-1.5617-1.6554.6992-1.6554 1.5617.7411 1.5617 1.6554 1.5617z"/></g><path d="m29.1342 33.0648-5.701 3.0263c-.2694.1432-.5976.1432-.867 0l-5.701-3.0263c-.6025-.3188-.6025-1.1366 0-1.4554l5.701-3.0264c.2694-.1432.5976-.1432.867 0l5.701 3.0264c.6024.3188.6024 1.1366 0 1.4554z" fill="#1a8ef9"/><path d="m29.5654 34.2796-5.515 2.9524c-.2791.1479-.4505.4251-.4505.7254v6.2052c0 .6422.7346 1.0442 1.3224.7254l5.5149-2.9524c.2792-.1479.4506-.4251.4506-.7254v-6.2052c0-.6422-.7347-1.0442-1.3224-.7254z" fill="#1a8ef9"/><path d="m16.4337 34.2796 5.515 2.9524c.2792.1479.4506.4251.4506.7254v6.2052c0 .6422-.7347 1.0442-1.3224.7254l-5.515-2.9524c-.2791-.1479-.4506-.4251-.4506-.7254v-6.2052c0-.6422.7347-1.0442 1.3224-.7254z" fill="#1a8ef9"/><path d="m34.5083 27.5902c.9142 0 1.6554-.6992 1.6554-1.5617s-.7412-1.5617-1.6554-1.5617c-.9143 0-1.6555.6992-1.6555 1.5617s.7412 1.5617 1.6555 1.5617z" fill="#fff"/><path d="m30.0112 27.5902c.9143 0 1.6554-.6992 1.6554-1.5617s-.7411-1.5617-1.6554-1.5617-1.6555.6992-1.6555 1.5617.7412 1.5617 1.6555 1.5617z" fill="#fff"/><path d="m34.5083 31.8265c.9142 0 1.6554-.6992 1.6554-1.5617s-.7412-1.5617-1.6554-1.5617c-.9143 0-1.6555.6992-1.6555 1.5617s.7412 1.5617 1.6555 1.5617z" fill="#fff"/><path d="m34.5083 36.0687c.9142 0 1.6554-.6992 1.6554-1.5617s-.7412-1.5617-1.6554-1.5617c-.9143 0-1.6555.6992-1.6555 1.5617s.7412 1.5617 1.6555 1.5617z" fill="#fff"/><path d="m34.5083 40.305c.9142 0 1.6554-.6992 1.6554-1.5617s-.7412-1.5617-1.6554-1.5617c-.9143 0-1.6555.6992-1.6555 1.5617s.7412 1.5617 1.6555 1.5617z" fill="#fff"/><path d="m34.5083 44.5472c.9142 0 1.6554-.6992 1.6554-1.5617s-.7412-1.5617-1.6554-1.5617c-.9143 0-1.6555.6992-1.6555 1.5617s.7412 1.5617 1.6555 1.5617z" fill="#fff"/><path d="m38.9409 27.5902c.9143 0 1.6554-.6992 1.6554-1.5617s-.7411-1.5617-1.6554-1.5617-1.6555.6992-1.6555 1.5617.7412 1.5617 1.6555 1.5617z" fill="#fff"/><path d="m38.9409 31.8265c.9143 0 1.6554-.6992 1.6554-1.5617s-.7411-1.5617-1.6554-1.5617-1.6555.6992-1.6555 1.5617.7412 1.5617 1.6555 1.5617z" fill="#fff"/><path d="m38.9409 36.0687c.9143 0 1.6554-.6992 1.6554-1.5617s-.7411-1.5617-1.6554-1.5617-1.6555.6992-1.6555 1.5617.7412 1.5617 1.6555 1.5617z" fill="#fff"/><path d="m38.9409 40.305c.9143 0 1.6554-.6992 1.6554-1.5617s-.7411-1.5617-1.6554-1.5617-1.6555.6992-1.6555 1.5617.7412 1.5617 1.6555 1.5617z" fill="#fff"/><path d="m38.9409 44.5472c.9143 0 1.6554-.6992 1.6554-1.5617s-.7411-1.5617-1.6554-1.5617-1.6555.6992-1.6555 1.5617.7412 1.5617 1.6555 1.5617z" fill="#fff"/><path d="m34.2219 1v4.2646c0 1.10427-.9502 2.00062-2.1208 2.00062h-18.2003c-1.1706 0-2.1208-.89635-2.1208-2.00062v-4.2646" stroke="#fff" stroke-linecap="round" stroke-linejoin="round"/><path d="m11.7789 3.43945h-10.936859" stroke="#fff" stroke-linecap="round" stroke-linejoin="round"/><path d="m45.1583 3.43945h-10.9369" stroke="#fff" stroke-linecap="round" stroke-linejoin="round"/><path d="m26.6771 7.26465v5.69225l-3.6783 2.8878-3.6782-2.8878v-5.69225" stroke="#fff" stroke-linecap="round" stroke-linejoin="round"/><path d="m22.0244 9.82422v2.05608l1.1804.8917" stroke="#fff" stroke-linecap="round" stroke-linejoin="round"/><path d="m22.9982 18.331c.2921 0 .529-.2234.529-.499s-.2369-.499-.529-.499-.529.2234-.529.499.2369.499.529.499z" fill="#fff"/><path d="m22.9982 19.6894c.2921 0 .529-.2234.529-.499s-.2369-.499-.529-.499-.529.2234-.529.499.2369.499.529.499z" fill="#fff"/><path d="m22.9982 21.0478c.2921 0 .529-.2234.529-.499s-.2369-.499-.529-.499-.529.2234-.529.499.2369.499.529.499z" fill="#fff"/><path d="m22.9982 22.4062c.2921 0 .529-.2234.529-.499s-.2369-.499-.529-.499-.529.2234-.529.499.2369.499.529.499z" fill="#fff"/><path d="m24.7274 18.331c.2922 0 .529-.2234.529-.499s-.2368-.499-.529-.499c-.2921 0-.5289.2234-.5289.499s.2368.499.5289.499z" fill="#fff"/><path d="m25.3937 19.5322c.2922 0 .529-.2234.529-.499s-.2368-.499-.529-.499c-.2921 0-.529.2234-.529.499s.2369.499.529.499z" fill="#fff"/><path d="m26.0649 20.7334c.2921 0 .5289-.2235.5289-.499 0-.2756-.2368-.499-.5289-.499-.2922 0-.529.2234-.529.499 0 .2755.2368.499.529.499z" fill="#fff"/><path d="m26.7355 21.9345c.2922 0 .529-.2234.529-.499s-.2368-.499-.529-.499c-.2921 0-.529.2234-.529.499s.2369.499.529.499z" fill="#fff"/><path d="m21.2758 18.331c.2921 0 .529-.2234.529-.499s-.2369-.499-.529-.499-.529.2234-.529.499.2369.499.529.499z" fill="#fff"/><path d="m20.6051 19.5322c.2922 0 .529-.2234.529-.499s-.2368-.499-.529-.499c-.2921 0-.5289.2234-.5289.499s.2368.499.5289.499z" fill="#fff"/><path d="m19.9384 20.7334c.2921 0 .529-.2235.529-.499 0-.2756-.2369-.499-.529-.499s-.529.2234-.529.499c0 .2755.2369.499.529.499z" fill="#fff"/><path d="m19.2677 21.9345c.2922 0 .529-.2234.529-.499s-.2368-.499-.529-.499c-.2921 0-.5289.2234-.5289.499s.2368.499.5289.499z" fill="#fff"/></svg>