<svg fill="none" height="45" viewBox="0 0 46 45" width="46" xmlns="http://www.w3.org/2000/svg"><path d="m34.4418 1v4.28443c0 1.1094-.9447 2.00992-2.1086 2.00992h-18.0966c-1.1639 0-2.1087-.90052-2.1087-2.00992v-4.28443" stroke="#fff" stroke-linecap="round" stroke-linejoin="round" stroke-width=".928368"/><path d="m12.1284 3.45117h-10.87449" stroke="#fff" stroke-linecap="round" stroke-linejoin="round" stroke-width=".928368"/><path d="m45.3169 3.45117h-10.8745" stroke="#fff" stroke-linecap="round" stroke-linejoin="round" stroke-width=".928368"/><path d="m26.9425 7.29395v5.71875l-3.6573 2.9012-3.6573-2.9012v-5.71875" stroke="#fff" stroke-linecap="round" stroke-linejoin="round" stroke-width=".928368"/><path d="m22.3164 9.86523v2.06567l1.1737.8958" stroke="#fff" stroke-linecap="round" stroke-linejoin="round" stroke-width=".928368"/><g fill="#fff"><path d="m24.0322 18.3373c0 .3768-.3237.7009-.7467.7009s-.7468-.3241-.7468-.7009c0-.3767.3238-.7009.7468-.7009s.7467.3242.7467.7009z" stroke="#fff" stroke-width=".464184"/><path d="m23.2855 21.8045c.5406 0 .9788-.4177.9788-.933s-.4382-.933-.9788-.933-.9789.4177-.9789.933.4383.933.9789.933z"/><path d="m23.2855 24.3397c.5406 0 .9788-.4178.9788-.9331 0-.5152-.4382-.933-.9788-.933s-.9789.4178-.9789.933c0 .5153.4383.9331.9789.9331z"/><path d="m23.2855 26.869c.5406 0 .9788-.4178.9788-.9331 0-.5152-.4382-.933-.9788-.933s-.9789.4178-.9789.933c0 .5153.4383.9331.9789.9331z"/><path d="m26.4701 19.2703c.5406 0 .9788-.4177.9788-.933s-.4382-.933-.9788-.933-.9789.4177-.9789.933.4383.933.9789.933z"/><path d="m27.7074 21.5125c.5406 0 .9788-.4177.9788-.933s-.4382-.933-.9788-.933-.9789.4177-.9789.933.4383.933.9789.933z"/><path d="m28.9437 23.7586c.5406 0 .9788-.4177.9788-.933s-.4382-.933-.9788-.933-.9789.4177-.9789.933.4383.933.9789.933z"/><path d="m30.1761 26.0008c.5406 0 .9789-.4177.9789-.933s-.4383-.933-.9789-.933-.9788.4177-.9788.933.4382.933.9788.933z"/><path d="m20.0999 19.2703c.5406 0 .9789-.4177.9789-.933s-.4383-.933-.9789-.933-.9788.4177-.9788.933.4382.933.9788.933z"/><path d="m18.8626 21.5125c.5406 0 .9789-.4177.9789-.933s-.4383-.933-.9789-.933-.9788.4177-.9788.933.4382.933.9788.933z"/><path d="m17.6312 23.7586c.5406 0 .9788-.4177.9788-.933s-.4382-.933-.9788-.933-.9789.4177-.9789.933.4383.933.9789.933z"/><path d="m16.3939 26.0008c.5406 0 .9788-.4177.9788-.933s-.4382-.933-.9788-.933-.9789.4177-.9789.933.4383.933.9789.933z"/></g><path d="m43.7967 45.0002h-42.7967v-4.5073l13.4994-3.6763c5.1621-1.4065 10.631-1.4065 15.7931 0l13.4994 3.6763v4.5073z" fill="#1a8ef9"/></svg>