<svg fill="none" height="45" viewBox="0 0 46 45" width="46" xmlns="http://www.w3.org/2000/svg"><g fill="#fff"><path d="m4.51057 26.0285c0 .7224-.62487 1.3306-1.42445 1.3306-.79957 0-1.42444-.6082-1.42444-1.3306s.62487-1.3307 1.42444-1.3307c.79958 0 1.42445.6083 1.42445 1.3307z" stroke="#fff" stroke-width=".462033"/><path d="m4.51057 30.2658c0 .7224-.62487 1.3307-1.42445 1.3307-.79957 0-1.42444-.6083-1.42444-1.3307s.62487-1.3307 1.42444-1.3307c.79958 0 1.42445.6083 1.42445 1.3307z" stroke="#fff" stroke-width=".462033"/><path d="m4.51057 34.507c0 .7224-.62487 1.3307-1.42445 1.3307-.79957 0-1.42444-.6083-1.42444-1.3307s.62487-1.3307 1.42444-1.3307c.79958 0 1.42445.6083 1.42445 1.3307z" stroke="#fff" stroke-width=".462033"/><path d="m4.51057 38.7433c0 .7224-.62487 1.3307-1.42445 1.3307-.79957 0-1.42444-.6083-1.42444-1.3307s.62487-1.3306 1.42444-1.3306c.79958 0 1.42445.6082 1.42445 1.3306z" stroke="#fff" stroke-width=".462033"/><path d="m4.51057 42.9855c0 .7224-.62487 1.3307-1.42445 1.3307-.79957 0-1.42444-.6083-1.42444-1.3307s.62487-1.3307 1.42444-1.3307c.79958 0 1.42445.6083 1.42445 1.3307z" stroke="#fff" stroke-width=".462033"/><path d="m8.94318 26.0285c0 .7224-.62487 1.3306-1.42444 1.3306s-1.42444-.6082-1.42444-1.3306.62487-1.3307 1.42444-1.3307c.79958 0 1.42444.6083 1.42444 1.3307z" stroke="#fff" stroke-width=".462033"/><path d="m7.51874 31.8265c.91429 0 1.65545-.6992 1.65545-1.5617s-.74116-1.5617-1.65545-1.5617c-.91428 0-1.65546.6992-1.65546 1.5617s.74118 1.5617 1.65546 1.5617z"/><path d="m7.51874 36.0687c.91429 0 1.65545-.6992 1.65545-1.5617s-.74116-1.5617-1.65545-1.5617c-.91428 0-1.65546.6992-1.65546 1.5617s.74118 1.5617 1.65546 1.5617z"/><path d="m7.51874 40.305c.91429 0 1.65545-.6992 1.65545-1.5617s-.74116-1.5617-1.65545-1.5617c-.91428 0-1.65546.6992-1.65546 1.5617s.74118 1.5617 1.65546 1.5617z"/><path d="m7.51874 44.5472c.91429 0 1.65545-.6992 1.65545-1.5617s-.74116-1.5617-1.65545-1.5617c-.91428 0-1.65546.6992-1.65546 1.5617s.74118 1.5617 1.65546 1.5617z"/><path d="m11.9514 27.5902c.9142 0 1.6554-.6992 1.6554-1.5617s-.7412-1.5617-1.6554-1.5617c-.9143 0-1.6555.6992-1.6555 1.5617s.7412 1.5617 1.6555 1.5617z"/><path d="m11.9514 31.8275c.9142 0 1.6554-.6992 1.6554-1.5617s-.7412-1.5617-1.6554-1.5617c-.9143 0-1.6555.6992-1.6555 1.5617s.7412 1.5617 1.6555 1.5617z"/><path d="m11.9514 36.0687c.9142 0 1.6554-.6992 1.6554-1.5617s-.7412-1.5617-1.6554-1.5617c-.9143 0-1.6555.6992-1.6555 1.5617s.7412 1.5617 1.6555 1.5617z"/><path d="m11.9514 40.305c.9142 0 1.6554-.6992 1.6554-1.5617s-.7412-1.5617-1.6554-1.5617c-.9143 0-1.6555.6992-1.6555 1.5617s.7412 1.5617 1.6555 1.5617z"/><path d="m11.9514 44.5462c.9142 0 1.6554-.6992 1.6554-1.5617s-.7412-1.5616-1.6554-1.5616c-.9143 0-1.6555.6991-1.6555 1.5616s.7412 1.5617 1.6555 1.5617z"/><path d="m16.5109 27.5902c.9143 0 1.6555-.6992 1.6555-1.5617s-.7412-1.5617-1.6555-1.5617-1.6554.6992-1.6554 1.5617.7411 1.5617 1.6554 1.5617z"/><path d="m20.9435 27.5902c.9143 0 1.6555-.6992 1.6555-1.5617s-.7412-1.5617-1.6555-1.5617c-.9142 0-1.6554.6992-1.6554 1.5617s.7412 1.5617 1.6554 1.5617z"/></g><path d="m34.3792 1v4.2646c0 1.10426-.9501 2.00062-2.1207 2.00062h-18.2002c-1.1706 0-2.1208-.89636-2.1208-2.00062v-4.2646" stroke="#fff" stroke-linecap="round" stroke-linejoin="round" stroke-width=".924065"/><path d="m11.9417 3.43945h-10.9417" stroke="#fff" stroke-linecap="round" stroke-linejoin="round" stroke-width=".924065"/><path d="m45.3157 3.43945h-10.9368" stroke="#fff" stroke-linecap="round" stroke-linejoin="round" stroke-width=".924065"/><path d="m26.836 7.26465v5.69225l-3.6783 2.8878-3.6733-2.8878v-5.69225" stroke="#fff" stroke-linecap="round" stroke-linejoin="round" stroke-width=".924065"/><path d="m22.1836 9.82422v2.05608l1.1804.8917" stroke="#fff" stroke-linecap="round" stroke-linejoin="round" stroke-width=".924065"/><path d="m23.1572 15.8447v3.4375" stroke="#fff" stroke-linecap="round" stroke-linejoin="round" stroke-width=".924065"/><path d="m29.2941 33.0648-5.7011 3.0263c-.2694.1432-.5975.1432-.8669 0l-5.701-3.0263c-.6025-.3188-.6025-1.1366 0-1.4555l5.701-3.0263c.2694-.1432.5975-.1432.8669 0l5.7011 3.0263c.6024.3189.6024 1.1367 0 1.4555z" fill="#1a8ef9"/><path d="m29.7272 34.2796-5.5149 2.9524c-.2792.1479-.4506.4251-.4506.7254v6.2052c0 .6422.7347 1.0442 1.3224.7254l5.515-2.9525c.2791-.1478.4506-.425.4506-.7254v-6.2051c0-.6422-.7347-1.0442-1.3225-.7254z" fill="#1a8ef9"/><path d="m16.5958 34.2796 5.515 2.9524c.2791.1479.4506.4251.4506.7254v6.2052c0 .6422-.7347 1.0442-1.3224.7254l-5.515-2.9525c-.2791-.1478-.4506-.425-.4506-.7254v-6.2051c0-.6422.7347-1.0442 1.3224-.7254z" fill="#1a8ef9"/><path d="m34.3684 27.5902c.9142 0 1.6554-.6992 1.6554-1.5617s-.7412-1.5617-1.6554-1.5617c-.9143 0-1.6555.6992-1.6555 1.5617s.7412 1.5617 1.6555 1.5617z" fill="#fff"/><path d="m29.8713 27.5902c.9143 0 1.6554-.6992 1.6554-1.5617s-.7411-1.5617-1.6554-1.5617-1.6555.6992-1.6555 1.5617.7412 1.5617 1.6555 1.5617z" fill="#fff"/><path d="m34.3684 31.8265c.9142 0 1.6554-.6992 1.6554-1.5617s-.7412-1.5617-1.6554-1.5617c-.9143 0-1.6555.6992-1.6555 1.5617s.7412 1.5617 1.6555 1.5617z" fill="#fff"/><path d="m34.3684 36.0687c.9142 0 1.6554-.6992 1.6554-1.5617s-.7412-1.5617-1.6554-1.5617c-.9143 0-1.6555.6992-1.6555 1.5617s.7412 1.5617 1.6555 1.5617z" fill="#fff"/><path d="m34.3684 40.306c.9142 0 1.6554-.6992 1.6554-1.5617s-.7412-1.5617-1.6554-1.5617c-.9143 0-1.6555.6992-1.6555 1.5617s.7412 1.5617 1.6555 1.5617z" fill="#fff"/><path d="m34.3684 44.5472c.9142 0 1.6554-.6992 1.6554-1.5617s-.7412-1.5617-1.6554-1.5617c-.9143 0-1.6555.6992-1.6555 1.5617s.7412 1.5617 1.6555 1.5617z" fill="#fff"/><path d="m38.801 27.5902c.9142 0 1.6554-.6992 1.6554-1.5617s-.7412-1.5617-1.6554-1.5617c-.9143 0-1.6555.6992-1.6555 1.5617s.7412 1.5617 1.6555 1.5617z" fill="#fff"/><path d="m38.801 31.8265c.9142 0 1.6554-.6992 1.6554-1.5617s-.7412-1.5617-1.6554-1.5617c-.9143 0-1.6555.6992-1.6555 1.5617s.7412 1.5617 1.6555 1.5617z" fill="#fff"/><path d="m38.801 36.0687c.9142 0 1.6554-.6992 1.6554-1.5617s-.7412-1.5617-1.6554-1.5617c-.9143 0-1.6555.6992-1.6555 1.5617s.7412 1.5617 1.6555 1.5617z" fill="#fff"/><path d="m38.801 40.306c.9142 0 1.6554-.6992 1.6554-1.5617s-.7412-1.5617-1.6554-1.5617c-.9143 0-1.6555.6992-1.6555 1.5617s.7412 1.5617 1.6555 1.5617z" fill="#fff"/><path d="m38.801 44.5472c.9142 0 1.6554-.6992 1.6554-1.5617s-.7412-1.5617-1.6554-1.5617c-.9143 0-1.6555.6992-1.6555 1.5617s.7412 1.5617 1.6555 1.5617z" fill="#fff"/><path d="m43.2336 27.5902c.9143 0 1.6554-.6992 1.6554-1.5617s-.7411-1.5617-1.6554-1.5617-1.6555.6992-1.6555 1.5617.7412 1.5617 1.6555 1.5617z" fill="#fff"/><path d="m25.3762 27.5902c.9142 0 1.6554-.6992 1.6554-1.5617s-.7412-1.5617-1.6554-1.5617c-.9143 0-1.6555.6992-1.6555 1.5617s.7412 1.5617 1.6555 1.5617z" fill="#fff"/><path d="m43.2336 31.8275c.9143 0 1.6554-.6992 1.6554-1.5617s-.7411-1.5617-1.6554-1.5617-1.6555.6992-1.6555 1.5617.7412 1.5617 1.6555 1.5617z" fill="#fff"/><path d="m43.2336 36.0687c.9143 0 1.6554-.6992 1.6554-1.5617s-.7411-1.5617-1.6554-1.5617-1.6555.6992-1.6555 1.5617.7412 1.5617 1.6555 1.5617z" fill="#fff"/><path d="m43.2336 40.305c.9143 0 1.6554-.6992 1.6554-1.5617s-.7411-1.5617-1.6554-1.5617-1.6555.6992-1.6555 1.5617.7412 1.5617 1.6555 1.5617z" fill="#fff"/><path d="m43.2336 44.5472c.9143 0 1.6554-.6992 1.6554-1.5617s-.7411-1.5617-1.6554-1.5617-1.6555.6992-1.6555 1.5617.7412 1.5617 1.6555 1.5617z" fill="#fff"/></svg>