<svg fill="none" height="45" viewBox="0 0 46 45" width="46" xmlns="http://www.w3.org/2000/svg"><path d="m34.3796 1v4.26456c0 1.10426-.9501 2.0006-2.1207 2.0006h-18.2006c-1.1706 0-2.1208-.89634-2.1208-2.0006v-4.26456" stroke="#fff" stroke-linecap="round" stroke-linejoin="round" stroke-width=".924063"/><path d="m11.937 3.43945h-10.937" stroke="#fff" stroke-linecap="round" stroke-linejoin="round" stroke-width=".924063"/><path d="m45.3159 3.43945h-10.937" stroke="#fff" stroke-linecap="round" stroke-linejoin="round" stroke-width=".924063"/><path d="m26.8361 7.26465v5.69225l-3.6783 2.8877-3.6783-2.8877v-5.69225" stroke="#fff" stroke-linecap="round" stroke-linejoin="round" stroke-width=".924063"/><path d="m22.1836 9.82422v2.05608l1.1804.8917" stroke="#fff" stroke-linecap="round" stroke-linejoin="round" stroke-width=".924063"/><path d="m29.1872 32.8615-.0002.0001-5.7012 3.0264h-.0001c-.2016.1072-.4485.1072-.6501 0h-.0001l-5.7011-3.0264-.0003-.0001c-.4385-.232-.4385-.815 0-1.047l.0003-.0002 5.7011-3.0263h.0001c.2016-.1072.4485-.1072.6501 0h.0001l5.7012 3.0263.0002.0002c.4385.232.4385.815 0 1.047z" fill="#1a8ef9" stroke="#fff" stroke-width=".462031"/><path d="m29.7264 34.2806-5.5151 2.9524c-.2791.1478-.4506.425-.4506.7254v6.2051c0 .6422.7347 1.0441 1.3225.7253l5.515-2.9523c.2792-.1479.4506-.4251.4506-.7254v-6.2051c0-.6423-.7347-1.0442-1.3224-.7254z" fill="#1a8ef9"/><path d="m16.59 34.2806 5.515 2.9524c.2792.1478.4506.425.4506.7254v6.2051c0 .6422-.7346 1.0441-1.3224.7253l-5.515-2.9523c-.2792-.1479-.4506-.4251-.4506-.7254v-6.2051c0-.6423.7347-1.0442 1.3224-.7254z" fill="#1a8ef9"/><g fill="#fff"><path d="m3.08615 27.5901c.9143 0 1.65549-.6991 1.65549-1.5616s-.74119-1.5617-1.65549-1.5617-1.65549.6992-1.65549 1.5617.74119 1.5616 1.65549 1.5616z"/><path d="m3.08615 31.8274c.9143 0 1.65549-.6991 1.65549-1.5616s-.74119-1.5617-1.65549-1.5617-1.65549.6992-1.65549 1.5617.74119 1.5616 1.65549 1.5616z"/><path d="m3.08615 36.0687c.9143 0 1.65549-.6992 1.65549-1.5617s-.74119-1.5617-1.65549-1.5617-1.65549.6992-1.65549 1.5617.74119 1.5617 1.65549 1.5617z"/><path d="m3.08615 40.305c.9143 0 1.65549-.6992 1.65549-1.5617s-.74119-1.5617-1.65549-1.5617-1.65549.6992-1.65549 1.5617.74119 1.5617 1.65549 1.5617z"/><path d="m3.08615 44.5472c.9143 0 1.65549-.6992 1.65549-1.5617s-.74119-1.5617-1.65549-1.5617-1.65549.6992-1.65549 1.5617.74119 1.5617 1.65549 1.5617z"/><path d="m7.51877 27.5901c.9143 0 1.65549-.6991 1.65549-1.5616s-.74119-1.5617-1.65549-1.5617-1.65549.6992-1.65549 1.5617.74119 1.5616 1.65549 1.5616z"/><path d="m7.51877 31.8274c.9143 0 1.65549-.6991 1.65549-1.5616s-.74119-1.5617-1.65549-1.5617-1.65549.6992-1.65549 1.5617.74119 1.5616 1.65549 1.5616z"/><path d="m7.51877 36.0687c.9143 0 1.65549-.6992 1.65549-1.5617s-.74119-1.5617-1.65549-1.5617-1.65549.6992-1.65549 1.5617.74119 1.5617 1.65549 1.5617z"/><path d="m7.51877 40.305c.9143 0 1.65549-.6992 1.65549-1.5617s-.74119-1.5617-1.65549-1.5617-1.65549.6992-1.65549 1.5617.74119 1.5617 1.65549 1.5617z"/><path d="m7.51877 44.5472c.9143 0 1.65549-.6992 1.65549-1.5617s-.74119-1.5617-1.65549-1.5617-1.65549.6992-1.65549 1.5617.74119 1.5617 1.65549 1.5617z"/><path d="m11.9514 27.5901c.9143 0 1.6555-.6991 1.6555-1.5616s-.7412-1.5617-1.6555-1.5617-1.6555.6992-1.6555 1.5617.7412 1.5616 1.6555 1.5616z"/><path d="m11.9514 31.8274c.9143 0 1.6555-.6991 1.6555-1.5616s-.7412-1.5617-1.6555-1.5617-1.6555.6992-1.6555 1.5617.7412 1.5616 1.6555 1.5616z"/><path d="m11.9514 36.0687c.9143 0 1.6555-.6992 1.6555-1.5617s-.7412-1.5617-1.6555-1.5617-1.6555.6992-1.6555 1.5617.7412 1.5617 1.6555 1.5617z"/><path d="m11.9514 40.305c.9143 0 1.6555-.6992 1.6555-1.5617s-.7412-1.5617-1.6555-1.5617-1.6555.6992-1.6555 1.5617.7412 1.5617 1.6555 1.5617z"/><path d="m11.9514 44.5472c.9143 0 1.6555-.6992 1.6555-1.5617s-.7412-1.5617-1.6555-1.5617-1.6555.6992-1.6555 1.5617.7412 1.5617 1.6555 1.5617z"/><path d="m34.3645 27.5901c.9143 0 1.6555-.6991 1.6555-1.5616s-.7412-1.5617-1.6555-1.5617-1.6555.6992-1.6555 1.5617.7412 1.5616 1.6555 1.5616z"/><path d="m29.8684 27.5901c.9143 0 1.6555-.6991 1.6555-1.5616s-.7412-1.5617-1.6555-1.5617-1.6555.6992-1.6555 1.5617.7412 1.5616 1.6555 1.5616z"/><path d="m34.3645 31.8274c.9143 0 1.6555-.6991 1.6555-1.5616s-.7412-1.5617-1.6555-1.5617-1.6555.6992-1.6555 1.5617.7412 1.5616 1.6555 1.5616z"/><path d="m34.3645 36.0687c.9143 0 1.6555-.6992 1.6555-1.5617s-.7412-1.5617-1.6555-1.5617-1.6555.6992-1.6555 1.5617.7412 1.5617 1.6555 1.5617z"/><path d="m34.3645 40.305c.9143 0 1.6555-.6992 1.6555-1.5617s-.7412-1.5617-1.6555-1.5617-1.6555.6992-1.6555 1.5617.7412 1.5617 1.6555 1.5617z"/><path d="m34.3645 44.5472c.9143 0 1.6555-.6992 1.6555-1.5617s-.7412-1.5617-1.6555-1.5617-1.6555.6992-1.6555 1.5617.7412 1.5617 1.6555 1.5617z"/><path d="m38.7971 27.5901c.9143 0 1.6555-.6991 1.6555-1.5616s-.7412-1.5617-1.6555-1.5617-1.6555.6992-1.6555 1.5617.7412 1.5616 1.6555 1.5616z"/><path d="m38.7971 31.8274c.9143 0 1.6555-.6991 1.6555-1.5616s-.7412-1.5617-1.6555-1.5617-1.6555.6992-1.6555 1.5617.7412 1.5616 1.6555 1.5616z"/><path d="m38.7971 36.0687c.9143 0 1.6555-.6992 1.6555-1.5617s-.7412-1.5617-1.6555-1.5617-1.6555.6992-1.6555 1.5617.7412 1.5617 1.6555 1.5617z"/><path d="m38.7971 40.305c.9143 0 1.6555-.6992 1.6555-1.5617s-.7412-1.5617-1.6555-1.5617-1.6555.6992-1.6555 1.5617.7412 1.5617 1.6555 1.5617z"/><path d="m38.7971 44.5472c.9143 0 1.6555-.6992 1.6555-1.5617s-.7412-1.5617-1.6555-1.5617-1.6555.6992-1.6555 1.5617.7412 1.5617 1.6555 1.5617z"/><path d="m43.2297 27.5901c.9143 0 1.6555-.6991 1.6555-1.5616s-.7412-1.5617-1.6555-1.5617-1.6555.6992-1.6555 1.5617.7412 1.5616 1.6555 1.5616z"/><path d="m16.511 27.5901c.9143 0 1.6554-.6991 1.6554-1.5616s-.7411-1.5617-1.6554-1.5617-1.6555.6992-1.6555 1.5617.7412 1.5616 1.6555 1.5616z"/><path d="m43.2297 31.8274c.9143 0 1.6555-.6991 1.6555-1.5616s-.7412-1.5617-1.6555-1.5617-1.6555.6992-1.6555 1.5617.7412 1.5616 1.6555 1.5616z"/><path d="m43.2297 36.0687c.9143 0 1.6555-.6992 1.6555-1.5617s-.7412-1.5617-1.6555-1.5617-1.6555.6992-1.6555 1.5617.7412 1.5617 1.6555 1.5617z"/><path d="m43.2297 40.305c.9143 0 1.6555-.6992 1.6555-1.5617s-.7412-1.5617-1.6555-1.5617-1.6555.6992-1.6555 1.5617.7412 1.5617 1.6555 1.5617z"/><path d="m43.2297 44.5472c.9143 0 1.6555-.6992 1.6555-1.5617s-.7412-1.5617-1.6555-1.5617-1.6555.6992-1.6555 1.5617.7412 1.5617 1.6555 1.5617z"/></g><path d="m23.1582 19.8691v7.1338" stroke="#fff" stroke-linecap="round" stroke-linejoin="round" stroke-width=".924063"/><path d="m26.4744 24.4619-1.1902 2.5412" stroke="#fff" stroke-linecap="round" stroke-linejoin="round" stroke-width=".924063"/><path d="m19.8428 24.4619 1.1902 2.5412" stroke="#fff" stroke-linecap="round" stroke-linejoin="round" stroke-width=".924063"/></svg>