<svg fill="none" height="47" viewBox="0 0 46 47" width="46" xmlns="http://www.w3.org/2000/svg"><g stroke-linecap="round" stroke-linejoin="round"><g stroke="#fff"><path d="m34.2173 1v4.51997c0 1.17039-.95 2.12041-2.1204 2.12041h-18.1974c-1.1704 0-2.1204-.95002-2.1204-2.12041v-4.51997"/><path d="m11.782 3.58496h-10.939959"/><path d="m45.1582 3.58496h-10.9399"/><path d="m26.6747 7.64062v6.03318l-3.6777 3.0606-3.6728-3.0606v-6.03318"/><path d="m22.0244 10.3535v2.1792l1.1802.9451"/><path d="m22.9949 16.7344v3.6434"/></g><path d="m22.887 28.0225v4.8089c0 1.3466 1.092 2.4338 2.4338 2.4338h8.0507c1.3467 0 2.4339 1.092 2.4339 2.4338 0 1.3467-1.0921 2.4338-2.4339 2.4338h-24.01505c-1.34668 0-2.43384 1.0921-2.43384 2.4339 0 1.3466 1.09205 2.4338 2.43384 2.4338h30.12655" stroke="#1a8ef9" stroke-width="3"/></g></svg>