<svg fill="none" height="46" viewBox="0 0 46 46" width="46" xmlns="http://www.w3.org/2000/svg"><path d="m44.3821 23.1826v19.3153c0 1.3806-1.1902 2.5018-2.6546 2.5018h-37.45374c-1.46934 0-2.65462-1.1212-2.65462-2.5018v-19.3153" stroke="#fff" stroke-linecap="round" stroke-linejoin="round" stroke-width=".926601"/><path d="m36.3162 23.1927-2.0473 1.4455c-.4261.3011-1.0383.3011-1.4644 0l-2.0473-1.4455c-.4261-.3012-1.0384-.3012-1.4645 0l-2.0473 1.4455c-.4261.3011-1.0383.3011-1.4644 0l-2.0473-1.4455c-.4261-.3012-1.0384-.3012-1.4645 0l-2.0473 1.4455c-.4261.3011-1.0383.3011-1.4644 0l-2.0473-1.4455c-.4261-.3012-1.0383-.3012-1.4645 0l-2.0472 1.4455c-.4262.3011-1.0384.3011-1.4645 0l-2.04729-1.4455c-.42611-.3012-1.03834-.3012-1.46445 0l-2.13545 1.5103c-.40652.2873-.64162.7182-.64162 1.1722v13.8158c0 1.0378.97467 1.881 2.17954 1.881h30.75837c1.2049 0 2.1795-.8432 2.1795-1.881v-13.8158c0-.454-.2351-.8849-.6416-1.1722l-2.1354-1.5103c-.4262-.3012-1.0384-.3012-1.4645 0z" fill="#fff"/><g stroke="#fff" stroke-linecap="round" stroke-linejoin="round" stroke-width=".926601"><path d="m34.2209 1v4.27632c0 1.1073-.9502 2.00611-2.1208 2.00611h-18.2003c-1.1706 0-2.1207-.89881-2.1207-2.00611v-4.27632"/><path d="m11.7788 3.44629h-10.936881"/><path d="m45.1582 3.44629h-10.9369"/><path d="m26.6783 7.28223v5.70797l-3.6783 2.8956-3.6782-2.8956v-5.70797"/><path d="m22.0247 9.84863v2.06167l1.1803.8942"/></g><path d="m27.6513 30.1092-4.3248 2.298c-.2057.1066-.4555.1066-.6563 0l-4.3248-2.298c-.4555-.2409-.4555-.8663 0-1.1073l4.3248-2.298c.2057-.1065.4555-.1065.6563 0l4.3248 2.298c.4555.241.4555.8664 0 1.1073z" fill="#1a8ef9"/><path d="m27.9803 31.0313-4.1828 2.2471c-.2106.1111-.3379.3243-.3379.5513v4.7164c0 .4865.5534.7923 1.004.5514l4.1828-2.2471c.2106-.1112.3379-.3243.3379-.5513v-4.7164c0-.4865-.5534-.7923-1.004-.5514z" fill="#1a8ef9"/><path d="m18.0174 31.0313 4.1827 2.2471c.2106.1111.338.3243.338.5513v4.7164c0 .4865-.5535.7923-1.0041.5514l-4.1827-2.2471c-.2107-.1112-.338-.3243-.338-.5513v-4.7164c0-.4865.5535-.7923 1.0041-.5514z" fill="#1a8ef9"/></svg>